# Blender v2.79 (sub 0) OBJ File: 'MD New.blend'
# www.blender.org
o Icosphere.001
v 0.000000 -1.000000 0.000000
v 0.723607 -0.447220 0.525725
v -0.276388 -0.447220 0.850649
v -0.894426 -0.447216 0.000000
v -0.276388 -0.447220 -0.850649
v 0.723607 -0.447220 -0.525725
v 0.276388 0.447220 0.850649
v -0.723607 0.447220 0.525725
v -0.723607 0.447220 -0.525725
v 0.276388 0.447220 -0.850649
v 0.894426 0.447216 0.000000
v 0.000000 1.000000 0.000000
v -0.162456 -0.850654 0.499995
v 0.425323 -0.850654 0.309011
v 0.262869 -0.525738 0.809012
v 0.850648 -0.525736 0.000000
v 0.425323 -0.850654 -0.309011
v -0.525730 -0.850652 0.000000
v -0.688189 -0.525736 0.499997
v -0.162456 -0.850654 -0.499995
v -0.688189 -0.525736 -0.499997
v 0.262869 -0.525738 -0.809012
v 0.951058 0.000000 0.309013
v 0.951058 0.000000 -0.309013
v 0.000000 0.000000 1.000000
v 0.587786 0.000000 0.809017
v -0.951058 0.000000 0.309013
v -0.587786 0.000000 0.809017
v -0.587786 0.000000 -0.809017
v -0.951058 0.000000 -0.309013
v 0.587786 0.000000 -0.809017
v 0.000000 0.000000 -1.000000
v 0.688189 0.525736 0.499997
v -0.262869 0.525738 0.809012
v -0.850648 0.525736 0.000000
v -0.262869 0.525738 -0.809012
v 0.688189 0.525736 -0.499997
v 0.162456 0.850654 0.499995
v 0.525730 0.850652 0.000000
v -0.425323 0.850654 0.309011
v -0.425323 0.850654 -0.309011
v 0.162456 0.850654 -0.499995
v 0.000000 -1.000000 0.000000
v 0.723607 -0.447220 0.525725
v -0.276388 -0.447220 0.850649
v -0.894426 -0.447216 0.000000
v -0.276388 -0.447220 -0.850649
v 0.723607 -0.447220 -0.525725
v 0.276388 0.447220 0.850649
v -0.723607 0.447220 0.525725
v -0.723607 0.447220 -0.525725
v 0.276388 0.447220 -0.850649
v 0.894426 0.447216 0.000000
v 0.000000 1.000000 0.000000
v -0.162456 -0.850654 0.499995
v 0.425323 -0.850654 0.309011
v 0.262869 -0.525738 0.809012
v 0.850648 -0.525736 0.000000
v 0.425323 -0.850654 -0.309011
v -0.525730 -0.850652 0.000000
v -0.688189 -0.525736 0.499997
v -0.162456 -0.850654 -0.499995
v -0.688189 -0.525736 -0.499997
v 0.262869 -0.525738 -0.809012
v 0.951058 0.000000 0.309013
v 0.951058 0.000000 -0.309013
v 0.000000 0.000000 1.000000
v 0.587786 0.000000 0.809017
v -0.951058 0.000000 0.309013
v -0.587786 0.000000 0.809017
v -0.587786 0.000000 -0.809017
v -0.951058 0.000000 -0.309013
v 0.587786 0.000000 -0.809017
v 0.000000 0.000000 -1.000000
v 0.688189 0.525736 0.499997
v -0.262869 0.525738 0.809012
v -0.850648 0.525736 0.000000
v -0.262869 0.525738 -0.809012
v 0.688189 0.525736 -0.499997
v 0.162456 0.850654 0.499995
v 0.525730 0.850652 0.000000
v -0.425323 0.850654 0.309011
v -0.425323 0.850654 -0.309011
v 0.162456 0.850654 -0.499995
vn 0.1024 -0.9435 0.3151
vn 0.7002 -0.6617 0.2680
vn -0.2680 -0.9435 0.1947
vn -0.2680 -0.9435 -0.1947
vn 0.1024 -0.9435 -0.3151
vn 0.9050 -0.3304 0.2680
vn 0.0247 -0.3304 0.9435
vn -0.8897 -0.3304 0.3151
vn -0.5746 -0.3304 -0.7488
vn 0.5346 -0.3304 -0.7779
vn 0.8026 -0.1256 0.5831
vn -0.3066 -0.1256 0.9435
vn -0.9921 -0.1256 0.0000
vn -0.3066 -0.1256 -0.9435
vn 0.8026 -0.1256 -0.5831
vn 0.4089 0.6617 0.6284
vn -0.4713 0.6617 0.5831
vn -0.7002 0.6617 -0.2680
vn 0.0385 0.6617 -0.7488
vn 0.7240 0.6617 -0.1947
vn 0.2680 0.9435 -0.1947
vn 0.4911 0.7947 -0.3568
vn 0.4089 0.6617 -0.6284
vn -0.1024 0.9435 -0.3151
vn -0.1876 0.7947 -0.5773
vn -0.4713 0.6617 -0.5831
vn -0.3313 0.9435 0.0000
vn -0.6071 0.7947 0.0000
vn -0.7002 0.6617 0.2680
vn -0.1024 0.9435 0.3151
vn -0.1876 0.7947 0.5773
vn 0.0385 0.6617 0.7488
vn 0.2680 0.9435 0.1947
vn 0.4911 0.7947 0.3568
vn 0.7240 0.6617 0.1947
vn 0.8897 0.3304 -0.3151
vn 0.7947 0.1876 -0.5773
vn 0.5746 0.3304 -0.7488
vn -0.0247 0.3304 -0.9435
vn -0.3035 0.1876 -0.9342
vn -0.5346 0.3304 -0.7779
vn -0.9050 0.3304 -0.2680
vn -0.9822 0.1876 0.0000
vn -0.9050 0.3304 0.2680
vn -0.5346 0.3304 0.7779
vn -0.3035 0.1876 0.9342
vn -0.0247 0.3304 0.9435
vn 0.5746 0.3304 0.7488
vn 0.7947 0.1876 0.5773
vn 0.8897 0.3304 0.3151
vn 0.3066 0.1256 -0.9435
vn 0.3035 -0.1876 -0.9342
vn 0.0247 -0.3304 -0.9435
vn -0.8026 0.1256 -0.5831
vn -0.7947 -0.1876 -0.5773
vn -0.8897 -0.3304 -0.3151
vn -0.8026 0.1256 0.5831
vn -0.7947 -0.1876 0.5773
vn -0.5746 -0.3304 0.7488
vn 0.3066 0.1256 0.9435
vn 0.3035 -0.1876 0.9342
vn 0.5346 -0.3304 0.7779
vn 0.9921 0.1256 0.0000
vn 0.9822 -0.1876 0.0000
vn 0.9050 -0.3304 -0.2680
vn 0.4713 -0.6617 -0.5831
vn 0.1876 -0.7947 -0.5773
vn -0.0385 -0.6617 -0.7488
vn -0.4089 -0.6617 -0.6284
vn -0.4911 -0.7947 -0.3568
vn -0.7240 -0.6617 -0.1947
vn -0.7240 -0.6617 0.1947
vn -0.4911 -0.7947 0.3568
vn -0.4089 -0.6617 0.6284
vn 0.7002 -0.6617 -0.2680
vn 0.6071 -0.7947 0.0000
vn 0.3313 -0.9435 0.0000
vn -0.0385 -0.6617 0.7488
vn 0.1876 -0.7947 0.5773
vn 0.4713 -0.6617 0.5831
s off
f 1//1 14//1 13//1
f 2//2 14//2 16//2
f 1//3 13//3 18//3
f 1//4 18//4 20//4
f 1//5 20//5 17//5
f 2//6 16//6 23//6
f 3//7 15//7 25//7
f 4//8 19//8 27//8
f 5//9 21//9 29//9
f 6//10 22//10 31//10
f 2//11 23//11 26//11
f 3//12 25//12 28//12
f 4//13 27//13 30//13
f 5//14 29//14 32//14
f 6//15 31//15 24//15
f 7//16 33//16 38//16
f 8//17 34//17 40//17
f 9//18 35//18 41//18
f 10//19 36//19 42//19
f 11//20 37//20 39//20
f 39//21 42//21 12//21
f 39//22 37//22 42//22
f 37//23 10//23 42//23
f 42//24 41//24 12//24
f 42//25 36//25 41//25
f 36//26 9//26 41//26
f 41//27 40//27 12//27
f 41//28 35//28 40//28
f 35//29 8//29 40//29
f 40//30 38//30 12//30
f 40//31 34//31 38//31
f 34//32 7//32 38//32
f 38//33 39//33 12//33
f 38//34 33//34 39//34
f 33//35 11//35 39//35
f 24//36 37//36 11//36
f 24//37 31//37 37//37
f 31//38 10//38 37//38
f 32//39 36//39 10//39
f 32//40 29//40 36//40
f 29//41 9//41 36//41
f 30//42 35//42 9//42
f 30//43 27//43 35//43
f 27//44 8//44 35//44
f 28//45 34//45 8//45
f 28//46 25//46 34//46
f 25//47 7//47 34//47
f 26//48 33//48 7//48
f 26//49 23//49 33//49
f 23//50 11//50 33//50
f 31//51 32//51 10//51
f 31//52 22//52 32//52
f 22//53 5//53 32//53
f 29//54 30//54 9//54
f 29//55 21//55 30//55
f 21//56 4//56 30//56
f 27//57 28//57 8//57
f 27//58 19//58 28//58
f 19//59 3//59 28//59
f 25//60 26//60 7//60
f 25//61 15//61 26//61
f 15//62 2//62 26//62
f 23//63 24//63 11//63
f 23//64 16//64 24//64
f 16//65 6//65 24//65
f 17//66 22//66 6//66
f 17//67 20//67 22//67
f 20//68 5//68 22//68
f 20//69 21//69 5//69
f 20//70 18//70 21//70
f 18//71 4//71 21//71
f 18//72 19//72 4//72
f 18//73 13//73 19//73
f 13//74 3//74 19//74
f 16//75 17//75 6//75
f 16//76 14//76 17//76
f 14//77 1//77 17//77
f 13//78 15//78 3//78
f 13//79 14//79 15//79
f 14//80 2//80 15//80
f 43//24 55//24 56//24
f 44//18 58//18 56//18
f 43//21 60//21 55//21
f 43//33 62//33 60//33
f 43//30 59//30 62//30
f 44//42 65//42 58//42
f 45//39 67//39 57//39
f 46//36 69//36 61//36
f 47//48 71//48 63//48
f 48//45 73//45 64//45
f 44//54 68//54 65//54
f 45//51 70//51 67//51
f 46//63 72//63 69//63
f 47//60 74//60 71//60
f 48//57 66//57 73//57
f 49//69 80//69 75//69
f 50//66 82//66 76//66
f 51//2 83//2 77//2
f 52//78 84//78 78//78
f 53//72 81//72 79//72
f 81//3 54//3 84//3
f 81//73 84//73 79//73
f 79//74 84//74 52//74
f 84//1 54//1 83//1
f 84//79 83//79 78//79
f 78//80 83//80 51//80
f 83//77 54//77 82//77
f 83//76 82//76 77//76
f 77//75 82//75 50//75
f 82//5 54//5 80//5
f 82//67 80//67 76//67
f 76//68 80//68 49//68
f 80//4 54//4 81//4
f 80//70 81//70 75//70
f 75//71 81//71 53//71
f 66//8 53//8 79//8
f 66//58 79//58 73//58
f 73//59 79//59 52//59
f 74//7 52//7 78//7
f 74//61 78//61 71//61
f 71//62 78//62 51//62
f 72//6 51//6 77//6
f 72//64 77//64 69//64
f 69//65 77//65 50//65
f 70//10 50//10 76//10
f 70//52 76//52 67//52
f 67//53 76//53 49//53
f 68//9 49//9 75//9
f 68//55 75//55 65//55
f 65//56 75//56 53//56
f 73//12 52//12 74//12
f 73//46 74//46 64//46
f 64//47 74//47 47//47
f 71//11 51//11 72//11
f 71//49 72//49 63//49
f 63//50 72//50 46//50
f 69//15 50//15 70//15
f 69//37 70//37 61//37
f 61//38 70//38 45//38
f 67//14 49//14 68//14
f 67//40 68//40 57//40
f 57//41 68//41 44//41
f 65//13 53//13 66//13
f 65//43 66//43 58//43
f 58//44 66//44 48//44
f 59//17 48//17 64//17
f 59//31 64//31 62//31
f 62//32 64//32 47//32
f 62//16 47//16 63//16
f 62//34 63//34 60//34
f 60//35 63//35 46//35
f 60//20 46//20 61//20
f 60//22 61//22 55//22
f 55//23 61//23 45//23
f 58//29 48//29 59//29
f 58//28 59//28 56//28
f 56//27 59//27 43//27
f 55//19 45//19 57//19
f 55//25 57//25 56//25
f 56//26 57//26 44//26
o Icosphere
v 0.000000 -1.000000 0.000000
v 0.723607 -0.447220 0.525725
v -0.276388 -0.447220 0.850649
v -0.894426 -0.447216 0.000000
v -0.276388 -0.447220 -0.850649
v 0.723607 -0.447220 -0.525725
v 0.276388 0.447220 0.850649
v -0.723607 0.447220 0.525725
v -0.723607 0.447220 -0.525725
v 0.276388 0.447220 -0.850649
v 0.894426 0.447216 0.000000
v 0.000000 1.000000 0.000000
v -0.162456 -0.850654 0.499995
v 0.425323 -0.850654 0.309011
v 0.262869 -0.525738 0.809012
v 0.850648 -0.525736 0.000000
v 0.425323 -0.850654 -0.309011
v -0.525730 -0.850652 0.000000
v -0.688189 -0.525736 0.499997
v -0.162456 -0.850654 -0.499995
v -0.688189 -0.525736 -0.499997
v 0.262869 -0.525738 -0.809012
v 0.951058 0.000000 0.309013
v 0.951058 0.000000 -0.309013
v 0.000000 0.000000 1.000000
v 0.587786 0.000000 0.809017
v -0.951058 0.000000 0.309013
v -0.587786 0.000000 0.809017
v -0.587786 0.000000 -0.809017
v -0.951058 0.000000 -0.309013
v 0.587786 0.000000 -0.809017
v 0.000000 0.000000 -1.000000
v 0.688189 0.525736 0.499997
v -0.262869 0.525738 0.809012
v -0.850648 0.525736 0.000000
v -0.262869 0.525738 -0.809012
v 0.688189 0.525736 -0.499997
v 0.162456 0.850654 0.499995
v 0.525730 0.850652 0.000000
v -0.425323 0.850654 0.309011
v -0.425323 0.850654 -0.309011
v 0.162456 0.850654 -0.499995
v 0.000000 -1.000000 0.000000
v 0.723607 -0.447220 0.525725
v -0.276388 -0.447220 0.850649
v -0.894426 -0.447216 0.000000
v -0.276388 -0.447220 -0.850649
v 0.723607 -0.447220 -0.525725
v 0.276388 0.447220 0.850649
v -0.723607 0.447220 0.525725
v -0.723607 0.447220 -0.525725
v 0.276388 0.447220 -0.850649
v 0.894426 0.447216 0.000000
v 0.000000 1.000000 0.000000
v -0.162456 -0.850654 0.499995
v 0.425323 -0.850654 0.309011
v 0.262869 -0.525738 0.809012
v 0.850648 -0.525736 0.000000
v 0.425323 -0.850654 -0.309011
v -0.525730 -0.850652 0.000000
v -0.688189 -0.525736 0.499997
v -0.162456 -0.850654 -0.499995
v -0.688189 -0.525736 -0.499997
v 0.262869 -0.525738 -0.809012
v 0.951058 0.000000 0.309013
v 0.951058 0.000000 -0.309013
v 0.000000 0.000000 1.000000
v 0.587786 0.000000 0.809017
v -0.951058 0.000000 0.309013
v -0.587786 0.000000 0.809017
v -0.587786 0.000000 -0.809017
v -0.951058 0.000000 -0.309013
v 0.587786 0.000000 -0.809017
v 0.000000 0.000000 -1.000000
v 0.688189 0.525736 0.499997
v -0.262869 0.525738 0.809012
v -0.850648 0.525736 0.000000
v -0.262869 0.525738 -0.809012
v 0.688189 0.525736 -0.499997
v 0.162456 0.850654 0.499995
v 0.525730 0.850652 0.000000
v -0.425323 0.850654 0.309011
v -0.425323 0.850654 -0.309011
v 0.162456 0.850654 -0.499995
vn 0.1024 -0.9435 0.3151
vn 0.7002 -0.6617 0.2680
vn -0.2680 -0.9435 0.1947
vn -0.2680 -0.9435 -0.1947
vn 0.1024 -0.9435 -0.3151
vn 0.9050 -0.3304 0.2680
vn 0.0247 -0.3304 0.9435
vn -0.8897 -0.3304 0.3151
vn -0.5746 -0.3304 -0.7488
vn 0.5346 -0.3304 -0.7779
vn 0.8026 -0.1256 0.5831
vn -0.3066 -0.1256 0.9435
vn -0.9921 -0.1256 0.0000
vn -0.3066 -0.1256 -0.9435
vn 0.8026 -0.1256 -0.5831
vn 0.4089 0.6617 0.6284
vn -0.4713 0.6617 0.5831
vn -0.7002 0.6617 -0.2680
vn 0.0385 0.6617 -0.7488
vn 0.7240 0.6617 -0.1947
vn 0.2680 0.9435 -0.1947
vn 0.4911 0.7947 -0.3568
vn 0.4089 0.6617 -0.6284
vn -0.1024 0.9435 -0.3151
vn -0.1876 0.7947 -0.5773
vn -0.4713 0.6617 -0.5831
vn -0.3313 0.9435 0.0000
vn -0.6071 0.7947 0.0000
vn -0.7002 0.6617 0.2680
vn -0.1024 0.9435 0.3151
vn -0.1876 0.7947 0.5773
vn 0.0385 0.6617 0.7488
vn 0.2680 0.9435 0.1947
vn 0.4911 0.7947 0.3568
vn 0.7240 0.6617 0.1947
vn 0.8897 0.3304 -0.3151
vn 0.7947 0.1876 -0.5773
vn 0.5746 0.3304 -0.7488
vn -0.0247 0.3304 -0.9435
vn -0.3035 0.1876 -0.9342
vn -0.5346 0.3304 -0.7779
vn -0.9050 0.3304 -0.2680
vn -0.9822 0.1876 0.0000
vn -0.9050 0.3304 0.2680
vn -0.5346 0.3304 0.7779
vn -0.3035 0.1876 0.9342
vn -0.0247 0.3304 0.9435
vn 0.5746 0.3304 0.7488
vn 0.7947 0.1876 0.5773
vn 0.8897 0.3304 0.3151
vn 0.3066 0.1256 -0.9435
vn 0.3035 -0.1876 -0.9342
vn 0.0247 -0.3304 -0.9435
vn -0.8026 0.1256 -0.5831
vn -0.7947 -0.1876 -0.5773
vn -0.8897 -0.3304 -0.3151
vn -0.8026 0.1256 0.5831
vn -0.7947 -0.1876 0.5773
vn -0.5746 -0.3304 0.7488
vn 0.3066 0.1256 0.9435
vn 0.3035 -0.1876 0.9342
vn 0.5346 -0.3304 0.7779
vn 0.9921 0.1256 0.0000
vn 0.9822 -0.1876 0.0000
vn 0.9050 -0.3304 -0.2680
vn 0.4713 -0.6617 -0.5831
vn 0.1876 -0.7947 -0.5773
vn -0.0385 -0.6617 -0.7488
vn -0.4089 -0.6617 -0.6284
vn -0.4911 -0.7947 -0.3568
vn -0.7240 -0.6617 -0.1947
vn -0.7240 -0.6617 0.1947
vn -0.4911 -0.7947 0.3568
vn -0.4089 -0.6617 0.6284
vn 0.7002 -0.6617 -0.2680
vn 0.6071 -0.7947 0.0000
vn 0.3313 -0.9435 0.0000
vn -0.0385 -0.6617 0.7488
vn 0.1876 -0.7947 0.5773
vn 0.4713 -0.6617 0.5831
s off
f 85//81 98//81 97//81
f 86//82 98//82 100//82
f 85//83 97//83 102//83
f 85//84 102//84 104//84
f 85//85 104//85 101//85
f 86//86 100//86 107//86
f 87//87 99//87 109//87
f 88//88 103//88 111//88
f 89//89 105//89 113//89
f 90//90 106//90 115//90
f 86//91 107//91 110//91
f 87//92 109//92 112//92
f 88//93 111//93 114//93
f 89//94 113//94 116//94
f 90//95 115//95 108//95
f 91//96 117//96 122//96
f 92//97 118//97 124//97
f 93//98 119//98 125//98
f 94//99 120//99 126//99
f 95//100 121//100 123//100
f 123//101 126//101 96//101
f 123//102 121//102 126//102
f 121//103 94//103 126//103
f 126//104 125//104 96//104
f 126//105 120//105 125//105
f 120//106 93//106 125//106
f 125//107 124//107 96//107
f 125//108 119//108 124//108
f 119//109 92//109 124//109
f 124//110 122//110 96//110
f 124//111 118//111 122//111
f 118//112 91//112 122//112
f 122//113 123//113 96//113
f 122//114 117//114 123//114
f 117//115 95//115 123//115
f 108//116 121//116 95//116
f 108//117 115//117 121//117
f 115//118 94//118 121//118
f 116//119 120//119 94//119
f 116//120 113//120 120//120
f 113//121 93//121 120//121
f 114//122 119//122 93//122
f 114//123 111//123 119//123
f 111//124 92//124 119//124
f 112//125 118//125 92//125
f 112//126 109//126 118//126
f 109//127 91//127 118//127
f 110//128 117//128 91//128
f 110//129 107//129 117//129
f 107//130 95//130 117//130
f 115//131 116//131 94//131
f 115//132 106//132 116//132
f 106//133 89//133 116//133
f 113//134 114//134 93//134
f 113//135 105//135 114//135
f 105//136 88//136 114//136
f 111//137 112//137 92//137
f 111//138 103//138 112//138
f 103//139 87//139 112//139
f 109//140 110//140 91//140
f 109//141 99//141 110//141
f 99//142 86//142 110//142
f 107//143 108//143 95//143
f 107//144 100//144 108//144
f 100//145 90//145 108//145
f 101//146 106//146 90//146
f 101//147 104//147 106//147
f 104//148 89//148 106//148
f 104//149 105//149 89//149
f 104//150 102//150 105//150
f 102//151 88//151 105//151
f 102//152 103//152 88//152
f 102//153 97//153 103//153
f 97//154 87//154 103//154
f 100//155 101//155 90//155
f 100//156 98//156 101//156
f 98//157 85//157 101//157
f 97//158 99//158 87//158
f 97//159 98//159 99//159
f 98//160 86//160 99//160
f 127//81 140//81 139//81
f 128//82 140//82 142//82
f 127//83 139//83 144//83
f 127//84 144//84 146//84
f 127//85 146//85 143//85
f 128//86 142//86 149//86
f 129//87 141//87 151//87
f 130//88 145//88 153//88
f 131//89 147//89 155//89
f 132//90 148//90 157//90
f 128//91 149//91 152//91
f 129//92 151//92 154//92
f 130//93 153//93 156//93
f 131//94 155//94 158//94
f 132//95 157//95 150//95
f 133//96 159//96 164//96
f 134//97 160//97 166//97
f 135//98 161//98 167//98
f 136//99 162//99 168//99
f 137//100 163//100 165//100
f 165//101 168//101 138//101
f 165//102 163//102 168//102
f 163//103 136//103 168//103
f 168//104 167//104 138//104
f 168//105 162//105 167//105
f 162//106 135//106 167//106
f 167//107 166//107 138//107
f 167//108 161//108 166//108
f 161//109 134//109 166//109
f 166//110 164//110 138//110
f 166//111 160//111 164//111
f 160//112 133//112 164//112
f 164//113 165//113 138//113
f 164//114 159//114 165//114
f 159//115 137//115 165//115
f 150//116 163//116 137//116
f 150//117 157//117 163//117
f 157//118 136//118 163//118
f 158//119 162//119 136//119
f 158//120 155//120 162//120
f 155//121 135//121 162//121
f 156//122 161//122 135//122
f 156//123 153//123 161//123
f 153//124 134//124 161//124
f 154//125 160//125 134//125
f 154//126 151//126 160//126
f 151//127 133//127 160//127
f 152//128 159//128 133//128
f 152//129 149//129 159//129
f 149//130 137//130 159//130
f 157//131 158//131 136//131
f 157//132 148//132 158//132
f 148//133 131//133 158//133
f 155//134 156//134 135//134
f 155//135 147//135 156//135
f 147//136 130//136 156//136
f 153//137 154//137 134//137
f 153//138 145//138 154//138
f 145//139 129//139 154//139
f 151//140 152//140 133//140
f 151//141 141//141 152//141
f 141//142 128//142 152//142
f 149//143 150//143 137//143
f 149//144 142//144 150//144
f 142//145 132//145 150//145
f 143//146 148//146 132//146
f 143//147 146//147 148//147
f 146//148 131//148 148//148
f 146//149 147//149 131//149
f 146//150 144//150 147//150
f 144//151 130//151 147//151
f 144//152 145//152 130//152
f 144//153 139//153 145//153
f 139//154 129//154 145//154
f 142//155 143//155 132//155
f 142//156 140//156 143//156
f 140//157 127//157 143//157
f 139//158 141//158 129//158
f 139//159 140//159 141//159
f 140//160 128//160 141//160
