# Blender v2.79 (sub 0) OBJ File: 'MirrorDimension.blend'
# www.blender.org
o Icosphere_Icosphere.001
v 0.000000 -1.000000 0.000000
v 0.723607 -0.447220 0.525725
v -0.276388 -0.447220 0.850649
v -0.894426 -0.447216 0.000000
v -0.276388 -0.447220 -0.850649
v 0.723607 -0.447220 -0.525725
v 0.276388 0.447220 0.850649
v -0.723607 0.447220 0.525725
v -0.723607 0.447220 -0.525725
v 0.276388 0.447220 -0.850649
v 0.894426 0.447216 0.000000
v 0.000000 1.000000 0.000000
v -0.162456 -0.850654 0.499995
v 0.425323 -0.850654 0.309011
v 0.262869 -0.525738 0.809012
v 0.850648 -0.525736 0.000000
v 0.425323 -0.850654 -0.309011
v -0.525730 -0.850652 0.000000
v -0.688189 -0.525736 0.499997
v -0.162456 -0.850654 -0.499995
v -0.688189 -0.525736 -0.499997
v 0.262869 -0.525738 -0.809012
v 0.951058 0.000000 0.309013
v 0.951058 0.000000 -0.309013
v 0.000000 0.000000 1.000000
v 0.587786 0.000000 0.809017
v -0.951058 0.000000 0.309013
v -0.587786 0.000000 0.809017
v -0.587786 0.000000 -0.809017
v -0.951058 0.000000 -0.309013
v 0.587786 0.000000 -0.809017
v 0.000000 0.000000 -1.000000
v 0.688189 0.525736 0.499997
v -0.262869 0.525738 0.809012
v -0.850648 0.525736 0.000000
v -0.262869 0.525738 -0.809012
v 0.688189 0.525736 -0.499997
v 0.162456 0.850654 0.499995
v 0.525730 0.850652 0.000000
v -0.425323 0.850654 0.309011
v -0.425323 0.850654 -0.309011
v 0.162456 0.850654 -0.499995
vt 0.368517 0.285893
vt 0.309870 0.207578
vt 0.420415 0.202951
vt 0.263988 0.121161
vt 0.284791 0.216766
vt 0.182319 0.175040
vt 0.504749 0.271805
vt 0.472728 0.179353
vt 0.579435 0.208598
vt 0.638804 0.299860
vt 0.636448 0.202046
vt 0.729186 0.262390
vt 0.177527 0.391686
vt 0.079687 0.391686
vt 0.142245 0.300429
vt 0.184281 0.064415
vt 0.455331 0.083070
vt 0.361135 0.109529
vt 0.396685 0.004752
vt 0.649190 0.105038
vt 0.551410 0.101565
vt 0.617169 0.012584
vt 0.827158 0.184982
vt 0.735076 0.151905
vt 0.824802 0.087167
vt 0.093324 0.215695
vt 0.031934 0.291880
vt 0.000125 0.185908
vt 0.288172 0.026354
vt 0.507230 0.000125
vt 0.723874 0.041830
vt 0.917540 0.147510
vt 0.087497 0.118026
vt 0.350811 0.678583
vt 0.264924 0.631716
vt 0.363552 0.581574
vt 0.544668 0.700552
vt 0.448591 0.682056
vt 0.527272 0.604269
vt 0.736010 0.662462
vt 0.638863 0.674093
vt 0.690128 0.576045
vt 0.906676 0.567928
vt 0.817680 0.608582
vt 0.836663 0.499581
vt 0.172842 0.598640
vt 0.105301 0.527850
vt 0.214512 0.510115
vt 0.920314 0.391936
vt 0.857755 0.483194
vt 0.822473 0.391937
vt 0.968067 0.491742
vt 0.732774 0.537642
vt 0.756958 0.442837
vt 0.715208 0.566857
vt 0.579585 0.580672
vt 0.631482 0.497729
vt 0.553958 0.603152
vt 0.420566 0.575023
vt 0.495251 0.511817
vt 0.389312 0.588635
vt 0.325152 0.509414
vt 0.269322 0.429066
vt 0.270437 0.605582
vt 0.082460 0.636110
vt 0.000125 0.562200
vt 0.999875 0.597715
vt 0.912503 0.665596
vt 0.815717 0.719208
vt 0.711827 0.757269
vt 0.603315 0.778870
vt 0.492769 0.783497
vt 0.382831 0.771038
vt 0.276124 0.741791
vt 0.175196 0.696453
vt 0.999875 0.221420
vt 0.894699 0.255771
vt 0.785488 0.273507
vt 0.763101 0.258939
vt 0.610689 0.194986
vt 0.163337 0.284041
vt 0.267224 0.245981
vt 0.243042 0.340786
vt 0.446041 0.180470
vn 0.1024 -0.9435 0.3151
vn 0.7002 -0.6617 0.2680
vn -0.2680 -0.9435 0.1947
vn -0.2680 -0.9435 -0.1947
vn 0.1024 -0.9435 -0.3151
vn 0.9050 -0.3304 0.2680
vn 0.0247 -0.3304 0.9435
vn -0.8897 -0.3304 0.3151
vn -0.5746 -0.3304 -0.7488
vn 0.5346 -0.3304 -0.7779
vn 0.8026 -0.1256 0.5831
vn -0.3066 -0.1256 0.9435
vn -0.9921 -0.1256 0.0000
vn -0.3066 -0.1256 -0.9435
vn 0.8026 -0.1256 -0.5831
vn 0.4089 0.6617 0.6284
vn -0.4713 0.6617 0.5831
vn -0.7002 0.6617 -0.2680
vn 0.0385 0.6617 -0.7488
vn 0.7240 0.6617 -0.1947
vn 0.2680 0.9435 -0.1947
vn 0.4911 0.7947 -0.3568
vn 0.4089 0.6617 -0.6284
vn -0.1024 0.9435 -0.3151
vn -0.1876 0.7947 -0.5773
vn -0.4713 0.6617 -0.5831
vn -0.3313 0.9435 0.0000
vn -0.6071 0.7947 0.0000
vn -0.7002 0.6617 0.2680
vn -0.1024 0.9435 0.3151
vn -0.1876 0.7947 0.5773
vn 0.0385 0.6617 0.7488
vn 0.2680 0.9435 0.1947
vn 0.4911 0.7947 0.3568
vn 0.7240 0.6617 0.1947
vn 0.8897 0.3304 -0.3151
vn 0.7947 0.1876 -0.5773
vn 0.5746 0.3304 -0.7488
vn -0.0247 0.3304 -0.9435
vn -0.3035 0.1876 -0.9342
vn -0.5346 0.3304 -0.7779
vn -0.9050 0.3304 -0.2680
vn -0.9822 0.1876 0.0000
vn -0.9050 0.3304 0.2680
vn -0.5346 0.3304 0.7779
vn -0.3035 0.1876 0.9342
vn -0.0247 0.3304 0.9435
vn 0.5746 0.3304 0.7488
vn 0.7947 0.1876 0.5773
vn 0.8897 0.3304 0.3151
vn 0.3066 0.1256 -0.9435
vn 0.3035 -0.1876 -0.9342
vn 0.0247 -0.3304 -0.9435
vn -0.8026 0.1256 -0.5831
vn -0.7947 -0.1876 -0.5773
vn -0.8897 -0.3304 -0.3151
vn -0.8026 0.1256 0.5831
vn -0.7947 -0.1876 0.5773
vn -0.5746 -0.3304 0.7488
vn 0.3066 0.1256 0.9435
vn 0.3035 -0.1876 0.9342
vn 0.5346 -0.3304 0.7779
vn 0.9921 0.1256 0.0000
vn 0.9822 -0.1876 0.0000
vn 0.9050 -0.3304 -0.2680
vn 0.4713 -0.6617 -0.5831
vn 0.1876 -0.7947 -0.5773
vn -0.0385 -0.6617 -0.7488
vn -0.4089 -0.6617 -0.6284
vn -0.4911 -0.7947 -0.3568
vn -0.7240 -0.6617 -0.1947
vn -0.7240 -0.6617 0.1947
vn -0.4911 -0.7947 0.3568
vn -0.4089 -0.6617 0.6284
vn 0.7002 -0.6617 -0.2680
vn 0.6071 -0.7947 0.0000
vn 0.3313 -0.9435 0.0000
vn -0.0385 -0.6617 0.7488
vn 0.1876 -0.7947 0.5773
vn 0.4713 -0.6617 0.5831
s off
f 1/1/1 14/2/1 13/3/1
f 2/4/2 14/5/2 16/6/2
f 1/7/3 13/8/3 18/9/3
f 1/10/4 18/11/4 20/12/4
f 1/13/5 20/14/5 17/15/5
f 2/4/6 16/6/6 23/16/6
f 3/17/7 15/18/7 25/19/7
f 4/20/8 19/21/8 27/22/8
f 5/23/9 21/24/9 29/25/9
f 6/26/10 22/27/10 31/28/10
f 2/4/11 23/16/11 26/29/11
f 3/17/12 25/19/12 28/30/12
f 4/20/13 27/22/13 30/31/13
f 5/23/14 29/25/14 32/32/14
f 6/26/15 31/28/15 24/33/15
f 7/34/16 33/35/16 38/36/16
f 8/37/17 34/38/17 40/39/17
f 9/40/18 35/41/18 41/42/18
f 10/43/19 36/44/19 42/45/19
f 11/46/20 37/47/20 39/48/20
f 39/49/21 42/50/21 12/51/21
f 39/49/22 37/52/22 42/50/22
f 37/52/23 10/43/23 42/50/23
f 42/45/24 41/53/24 12/54/24
f 42/45/25 36/44/25 41/53/25
f 36/44/26 9/40/26 41/55/26
f 41/42/27 40/56/27 12/57/27
f 41/42/28 35/41/28 40/56/28
f 35/41/29 8/37/29 40/58/29
f 40/39/30 38/59/30 12/60/30
f 40/39/31 34/38/31 38/59/31
f 34/38/32 7/34/32 38/61/32
f 38/62/33 39/48/33 12/63/33
f 38/62/34 33/64/34 39/48/34
f 33/64/35 11/46/35 39/48/35
f 24/65/36 37/47/36 11/46/36
f 24/65/37 31/66/37 37/47/37
f 31/67/38 10/43/38 37/52/38
f 32/68/39 36/44/39 10/43/39
f 32/68/40 29/69/40 36/44/40
f 29/69/41 9/40/41 36/44/41
f 30/70/42 35/41/42 9/40/42
f 30/70/43 27/71/43 35/41/43
f 27/71/44 8/37/44 35/41/44
f 28/72/45 34/38/45 8/37/45
f 28/72/46 25/73/46 34/38/46
f 25/73/47 7/34/47 34/38/47
f 26/74/48 33/35/48 7/34/48
f 26/74/49 23/75/49 33/35/49
f 23/75/50 11/46/50 33/35/50
f 31/67/51 32/68/51 10/43/51
f 31/76/52 22/77/52 32/32/52
f 22/77/53 5/23/53 32/32/53
f 29/69/54 30/70/54 9/40/54
f 29/25/55 21/24/55 30/31/55
f 21/24/56 4/20/56 30/31/56
f 27/71/57 28/72/57 8/37/57
f 27/22/58 19/21/58 28/30/58
f 19/21/59 3/17/59 28/30/59
f 25/73/60 26/74/60 7/34/60
f 25/19/61 15/18/61 26/29/61
f 15/18/62 2/4/62 26/29/62
f 23/75/63 24/65/63 11/46/63
f 23/16/64 16/6/64 24/33/64
f 16/6/65 6/26/65 24/33/65
f 17/15/66 22/27/66 6/26/66
f 17/15/67 20/14/67 22/27/67
f 20/78/68 5/23/68 22/77/68
f 20/79/69 21/24/69 5/23/69
f 20/12/70 18/11/70 21/24/70
f 18/11/71 4/20/71 21/24/71
f 18/80/72 19/21/72 4/20/72
f 18/9/73 13/8/73 19/21/73
f 13/8/74 3/17/74 19/21/74
f 16/6/75 17/81/75 6/26/75
f 16/6/76 14/82/76 17/81/76
f 14/82/77 1/83/77 17/81/77
f 13/84/78 15/18/78 3/17/78
f 13/3/79 14/2/79 15/18/79
f 14/2/80 2/4/80 15/18/80
